<svg xmlns="http://www.w3.org/2000/svg" viewBox="0 0 520.81 104"><defs><style>.cls-1{fill:#fff;}</style></defs><title>Loewenherz_Logo_white_1</title><g id="Ebene_2" data-name="Ebene 2"><g id="Ebene_1-2" data-name="Ebene 1"><path class="cls-1" d="M137.71,13.84V52h21.47l-1.68,13.51H122.81V13.84Z"/><path class="cls-1" d="M161.58,48.89c0-10.22,8.18-18,19.5-18s19.42,7.74,19.42,18-8.25,18-19.42,18S161.58,59.19,161.58,48.89Zm11.83-34.1a6.17,6.17,0,0,1,0,12.34A6,6,0,0,1,167.28,21,6.14,6.14,0,0,1,173.41,14.79Zm13.14,34.1c0-3.65-2.19-6.13-5.48-6.13s-5.55,2.48-5.55,6.13,2.41,6.21,5.55,6.21S186.55,52.62,186.55,48.89Zm2.12-34.1A6.09,6.09,0,0,1,194.8,21a6.1,6.1,0,1,1-12.19,0A6.08,6.08,0,0,1,188.67,14.79Z"/><path class="cls-1" d="M201.3,32.32h14.9l4.16,19.13h.15l5.55-19.06h8.32l5.55,19.06h.15l4.16-19.13h14.9L247.74,65.76H235.62l-5.33-17.09h-.15l-5.33,17.09H212.69Z"/><path class="cls-1" d="M274.4,51.08v.66a5,5,0,0,0,5.33,5.33,5.81,5.81,0,0,0,4.89-3l.73-.29L297,57.22c-2.7,6.13-8.69,9.71-17.6,9.71-12.12,0-19.42-7.74-19.42-18s7.81-18,19.35-18c11.1,0,19.06,7.52,19.06,18.47a16,16,0,0,1-.07,1.68Zm.07-5.77h9.86c-.15-3.21-2-5.11-4.82-5.11C277,40.2,274.83,42.1,274.47,45.31Z"/><path class="cls-1" d="M317.33,32.32v5c2.92-4.38,6.5-6.43,11.1-6.43,7.08,0,11.54,4.67,11.54,13.14V65.54H325.58V48.23c0-4.23-1.17-5.48-3.43-5.48-2.56,0-4.38,2.48-4.38,6.86V65.54H303.38V32.32Z"/><path class="cls-1" d="M361.85,12v14.9a94.16,94.16,0,0,1-.44,10.44c2.92-4.38,6.5-6.43,11.1-6.43,7.08,0,11.46,4.67,11.46,13.14V65.54H369.66V48.31c0-4.31-1.17-5.55-3.43-5.55-2.56,0-4.38,2.48-4.38,6.86V65.54H347.47V12Z"/><path class="cls-1" d="M403.32,51.08v.66a5,5,0,0,0,5.33,5.33,5.81,5.81,0,0,0,4.89-3l.73-.29,11.61,3.43c-2.7,6.13-8.69,9.71-17.6,9.71-12.12,0-19.42-7.74-19.42-18s7.81-18,19.35-18c11.1,0,19.06,7.52,19.06,18.47a16,16,0,0,1-.07,1.68Zm.07-5.77h9.86c-.15-3.21-2-5.11-4.82-5.11C405.88,40.2,403.76,42.1,403.4,45.31Z"/><path class="cls-1" d="M432.31,32.32H446V37.5c2.7-4.53,6.43-6.57,9.93-6.57,4.53,0,7.59,2.26,9.13,8.54l-11.61,6.21-.66-.29c-.51-1.39-1.24-2-2.41-2-2,0-3.65,2.34-3.65,7.37V65.54H432.31Z"/><path class="cls-1" d="M466.34,43.2V32.32h34.9V33L486.71,54.51h14.24v11H465.61v-.73L479.85,43.2Z"/><path class="cls-1" d="M504.67,58.38c0-4.38,3.36-7.67,8-7.67s8.11,3.29,8.11,7.67a8.07,8.07,0,0,1-16.14,0Z"/><path class="cls-1" d="M122.81,73.86h4.39c4.09,0,6.06,1.6,6.06,4.59a3.69,3.69,0,0,1-2.67,3.64v.1a4.24,4.24,0,0,1,3.59,4.29c0,3.34-2.14,5-6.9,5h-4.46Zm4.56,7.7c2.59,0,3.86-1,3.86-3,0-1.87-1.22-2.82-4.16-2.82h-2.19v5.86Zm-.17,8.1c3.51,0,4.88-1,4.88-3.19s-1.42-3.24-4.59-3.24h-2.62v6.43Z"/><path class="cls-1" d="M145.22,91.51V89.59A4.58,4.58,0,0,1,141.31,92c-2.52,0-4-1.57-4-4.49V80.44h1.89v6.43c0,2.29.87,3.34,2.67,3.34s3.34-1.69,3.34-4.24V80.44h1.89V91.51ZM140,75a1.36,1.36,0,0,1,1.35,1.37A1.3,1.3,0,0,1,140,77.75a1.34,1.34,0,0,1-1.4-1.37A1.42,1.42,0,0,1,140,75Zm4.41,0a1.38,1.38,0,0,1,1.37,1.37,1.32,1.32,0,0,1-1.37,1.37,1.34,1.34,0,0,1-1.37-1.37A1.4,1.4,0,0,1,144.42,75Z"/><path class="cls-1" d="M151.16,80.44h1.69v2.24c.95-1.92,2.09-2.72,3.61-2.72a2.4,2.4,0,0,1,2.29,1.77l-1.62.95-.2-.05a1.25,1.25,0,0,0-1.27-.9c-1.3,0-2.62,1.69-2.62,4.59v5.18h-1.89Z"/><path class="cls-1" d="M159.63,86a6.06,6.06,0,1,1,6.06,6A5.91,5.91,0,0,1,159.63,86Zm10.12,0a4.07,4.07,0,1,0-4.06,4.24A4.09,4.09,0,0,0,169.75,86Z"/><path class="cls-1" d="M186.38,74.73c-1.1,0-1.55.6-1.55,2.74v3h2.77v1.62h-2.77v9.45h-1.89V82.06h-2.12V80.44h2.12V77.63c0-3.51,1-4.69,3.34-4.69a6,6,0,0,1,1.64.27l-.12,1.69-.22.1A3,3,0,0,0,186.38,74.73Z"/><path class="cls-1" d="M197.47,91.51V89.59A4.58,4.58,0,0,1,193.56,92c-2.52,0-4-1.57-4-4.49V80.44h1.89v6.43c0,2.29.87,3.34,2.67,3.34s3.34-1.69,3.34-4.24V80.44h1.89V91.51ZM192.26,75a1.36,1.36,0,0,1,1.35,1.37,1.3,1.3,0,0,1-1.35,1.37,1.34,1.34,0,0,1-1.4-1.37A1.42,1.42,0,0,1,192.26,75Zm4.41,0A1.38,1.38,0,0,1,198,76.38a1.32,1.32,0,0,1-1.37,1.37,1.34,1.34,0,0,1-1.37-1.37A1.4,1.4,0,0,1,196.68,75Z"/><path class="cls-1" d="M203.41,80.44h1.69v2.24C206,80.77,207.2,80,208.72,80A2.4,2.4,0,0,1,211,81.74l-1.62.95-.2-.05a1.25,1.25,0,0,0-1.27-.9c-1.3,0-2.62,1.69-2.62,4.59v5.18h-1.89Z"/><path class="cls-1" d="M221.83,86.32v.1a3.59,3.59,0,0,0,3.71,3.84,3.81,3.81,0,0,0,3.39-2.07l.2,0,1.37.92a5.62,5.62,0,0,1-5,2.92c-3.36,0-5.66-2.44-5.66-6s2.29-6,5.53-6,5.31,2.17,5.31,5.93a2.72,2.72,0,0,1,0,.42Zm.07-1.55h6.73a3.1,3.1,0,0,0-3.29-3.12A3.36,3.36,0,0,0,221.91,84.78Z"/><path class="cls-1" d="M251.22,84.35v7.15h-1.89V85.2c0-2.39-.9-3.46-2.62-3.46s-3.22,1.87-3.22,4.41v5.36H241.6V85.2c0-2.39-.9-3.46-2.62-3.46s-3.22,1.87-3.22,4.41v5.36h-1.89V80.44h1.89v2A4.27,4.27,0,0,1,239.55,80a3.45,3.45,0,0,1,3.61,2.82A4.56,4.56,0,0,1,247.28,80C249.7,80,251.22,81.54,251.22,84.35Z"/><path class="cls-1" d="M254.34,86a6.06,6.06,0,1,1,6.06,6A5.91,5.91,0,0,1,254.34,86Zm10.12,0a4.07,4.07,0,1,0-4.06,4.24A4.09,4.09,0,0,0,264.46,86Z"/><path class="cls-1" d="M275.28,91.63a6,6,0,0,1-2,.35A3,3,0,0,1,270,88.69V82.06h-2.12V80.44H270V77l1.64-1h.25v4.49h3.31v1.62h-3.31v6.06c0,1.57.42,2.09,1.67,2.09a3.39,3.39,0,0,0,1.4-.35l.2.1Z"/><path class="cls-1" d="M277.67,75.18a1.39,1.39,0,0,1,1.4-1.4,1.42,1.42,0,0,1,1.4,1.42,1.4,1.4,0,0,1-2.79,0Zm.45,5.26H280V91.51h-1.89Z"/><path class="cls-1" d="M283.13,86a6.06,6.06,0,1,1,6.06,6A5.91,5.91,0,0,1,283.13,86Zm10.12,0a4.07,4.07,0,1,0-4.06,4.24A4.09,4.09,0,0,0,293.25,86Z"/><path class="cls-1" d="M300.26,80.44v2a4.61,4.61,0,0,1,4-2.44c2.67,0,4.19,1.57,4.19,4.39v7.15h-1.89V85.18c0-2.39-.9-3.44-2.82-3.44-2.12,0-3.51,1.75-3.51,4.24v5.53h-1.89V80.44Z"/><path class="cls-1" d="M321.87,90.19v1.47a4.72,4.72,0,0,1-1.57.25,1.6,1.6,0,0,1-1.74-1.62A4.84,4.84,0,0,1,314.92,92a3,3,0,0,1-3.24-3c0-2,1.94-3.49,6.8-4.14v-.7c0-1.67-.7-2.42-2-2.42a3.88,3.88,0,0,0-3.21,1.94l-.2,0-1.32-.87A5.69,5.69,0,0,1,316.61,80a3.41,3.41,0,0,1,3.76,3.71v5.93c0,.5.15.65.57.65a1.88,1.88,0,0,0,.72-.17ZM318.48,89V86.25c-3.51.57-4.81,1.35-4.81,2.64,0,.92.57,1.47,1.7,1.47A4.3,4.3,0,0,0,318.48,89Z"/><path class="cls-1" d="M324.54,73.24h1.89V91.51h-1.89Z"/><path class="cls-1" d="M331.6,86.32v.1a3.59,3.59,0,0,0,3.71,3.84,3.81,3.81,0,0,0,3.39-2.07l.2,0,1.37.92a5.62,5.62,0,0,1-5,2.92c-3.36,0-5.66-2.44-5.66-6s2.29-6,5.53-6,5.31,2.17,5.31,5.93a2.67,2.67,0,0,1,0,.42Zm.07-1.55h6.73a3.1,3.1,0,0,0-3.29-3.12A3.36,3.36,0,0,0,331.67,84.78Z"/><path class="cls-1" d="M356.25,83.08l-2.89,3.22v5.21h-2.07V73.86h2.07v9.65h0L357.32,79l4.46-5.18h2.52l-6.68,7.68,7.05,10h-2.54Z"/><path class="cls-1" d="M365.53,86a6.06,6.06,0,1,1,6.06,6A5.91,5.91,0,0,1,365.53,86Zm10.12,0a4.07,4.07,0,1,0-4.06,4.24A4.09,4.09,0,0,0,375.64,86Z"/><path class="cls-1" d="M398.1,84.35v7.15h-1.89V85.2c0-2.39-.9-3.46-2.62-3.46s-3.22,1.87-3.22,4.41v5.36h-1.89V85.2c0-2.39-.9-3.46-2.62-3.46s-3.22,1.87-3.22,4.41v5.36h-1.89V80.44h1.89v2A4.27,4.27,0,0,1,386.44,80a3.45,3.45,0,0,1,3.61,2.82A4.56,4.56,0,0,1,394.17,80C396.58,80,398.1,81.54,398.1,84.35Z"/><path class="cls-1" d="M419.49,84.35v7.15H417.6V85.2c0-2.39-.9-3.46-2.62-3.46s-3.22,1.87-3.22,4.41v5.36h-1.89V85.2c0-2.39-.9-3.46-2.62-3.46S404,83.61,404,86.15v5.36h-1.89V80.44H404v2A4.27,4.27,0,0,1,407.83,80a3.45,3.45,0,0,1,3.61,2.82A4.56,4.56,0,0,1,415.56,80C418,80,419.49,81.54,419.49,84.35Z"/><path class="cls-1" d="M431.44,91.51V89.59A4.58,4.58,0,0,1,427.52,92c-2.52,0-4-1.57-4-4.49V80.44h1.89v6.43c0,2.29.87,3.34,2.67,3.34s3.34-1.69,3.34-4.24V80.44h1.89V91.51Z"/><path class="cls-1" d="M439.27,80.44v2a4.61,4.61,0,0,1,4-2.44c2.67,0,4.19,1.57,4.19,4.39v7.15H445.6V85.18c0-2.39-.9-3.44-2.82-3.44-2.12,0-3.51,1.75-3.51,4.24v5.53h-1.89V80.44Z"/><path class="cls-1" d="M451.08,75.18a1.39,1.39,0,0,1,1.4-1.4,1.41,1.41,0,0,1,1.4,1.42,1.4,1.4,0,0,1-2.79,0Zm.45,5.26h1.89V91.51h-1.89Z"/><path class="cls-1" d="M461.13,85.9l-1.77,1.64v4h-1.89V73.24h1.89V85.45l3-2.92,2.12-2.09H467l-4.56,4.26,5.23,6.8h-2.34Z"/><path class="cls-1" d="M479.1,90.19v1.47a4.72,4.72,0,0,1-1.57.25,1.6,1.6,0,0,1-1.74-1.62A4.84,4.84,0,0,1,472.15,92a3,3,0,0,1-3.24-3c0-2,1.94-3.49,6.8-4.14v-.7c0-1.67-.7-2.42-2-2.42a3.88,3.88,0,0,0-3.21,1.94l-.2,0L469,82.78A5.69,5.69,0,0,1,473.84,80a3.41,3.41,0,0,1,3.76,3.71v5.93c0,.5.15.65.57.65a1.88,1.88,0,0,0,.72-.17ZM475.71,89V86.25c-3.51.57-4.81,1.35-4.81,2.64,0,.92.57,1.47,1.7,1.47A4.3,4.3,0,0,0,475.71,89Z"/><path class="cls-1" d="M487.61,91.63a6,6,0,0,1-2,.35,3,3,0,0,1-3.19-3.29V82.06h-2.12V80.44h2.12V77L484,76h.25v4.49h3.31v1.62h-3.31v6.06c0,1.57.42,2.09,1.67,2.09a3.39,3.39,0,0,0,1.4-.35l.2.1Z"/><path class="cls-1" d="M490,75.18a1.39,1.39,0,0,1,1.4-1.4,1.41,1.41,0,0,1,1.4,1.42,1.4,1.4,0,0,1-2.79,0Zm.45,5.26h1.89V91.51h-1.89Z"/><path class="cls-1" d="M495.46,86a6.06,6.06,0,1,1,6.06,6A5.91,5.91,0,0,1,495.46,86Zm10.12,0a4.07,4.07,0,1,0-4.06,4.24A4.09,4.09,0,0,0,505.58,86Z"/><path class="cls-1" d="M512.58,80.44v2a4.61,4.61,0,0,1,4-2.44c2.67,0,4.19,1.57,4.19,4.39v7.15h-1.89V85.18c0-2.39-.9-3.44-2.82-3.44-2.12,0-3.51,1.75-3.51,4.24v5.53h-1.89V80.44Z"/><path class="cls-1" d="M13.54,13.95a46,46,0,0,1,4.86-6,56.42,56.42,0,0,1,12.3,6.8,20.53,20.53,0,0,1-1.67,5c-3.13-1.81-11.34-5.14-15.5-5.72"/><path class="cls-1" d="M34.42,94.36c-1.5-.69-3.05-1.37-4.62-2.05C29,72.81,3.18,78.36,3.18,54.18q0-.89,0-1.77a39,39,0,0,1,6.68-8.78A28.72,28.72,0,0,0,10,54.4c1.15,6.78,4.61,11,9.56,15.24,8.91,7.66,14.37,12,14.9,24.73"/><path class="cls-1" d="M27.12,91.16C14,85.54.51,79.58,0,66.46a28,28,0,0,1,.83-8.11C3.44,78.85,25.31,76.08,27.12,91.16"/><path class="cls-1" d="M3.39,47.24c.18-2.77.46-5.53.89-8.26a39.08,39.08,0,0,1,12-6.36,10,10,0,0,0,.87.94C12.3,37.78,7.2,42,3.39,47.24"/><path class="cls-1" d="M32,0c2.6.18,5.45.58,8.11,1a28.7,28.7,0,0,1,2.55,8.71l-.74-.2c-1.74-.45-3.26-.73-4.2-.88A23,23,0,0,0,32,0"/><path class="cls-1" d="M12.82,23a42.4,42.4,0,0,0-4.25.23A53.25,53.25,0,0,1,12,16.29c.69.11,1.39.24,2.09.39-1,1.39-1.45,3.73-1.31,6.31"/><path class="cls-1" d="M14.78,30.4a40.88,40.88,0,0,0-9.84,4.93,67.89,67.89,0,0,1,2.59-9.38,39.86,39.86,0,0,1,5.61-.37,18,18,0,0,0,1.64,4.82"/><path class="cls-1" d="M43.13,1.57c2.48.47,4.54.92,5.69,1.18v9.39a25.15,25.15,0,0,0-3.54-1.56,31.5,31.5,0,0,0-2.15-9"/><path class="cls-1" d="M25.36,25.44A63,63,0,0,1,18.9,32c-.2-.29-.38-.59-.56-.89a13.25,13.25,0,0,1-.66-11.71l2.38,1a11.42,11.42,0,0,0-.76,3.15,19.15,19.15,0,0,1,6.06,2"/><path class="cls-1" d="M86.68,13.95a46,46,0,0,0-4.86-6,56.47,56.47,0,0,0-12.3,6.8,20.53,20.53,0,0,0,1.67,5c3.13-1.81,11.34-5.14,15.5-5.72"/><path class="cls-1" d="M65.81,94.36c1.5-.69,3.05-1.37,4.62-2.05C71.21,72.81,97,78.36,97,54.18c0-.59,0-1.18,0-1.77a38.9,38.9,0,0,0-6.68-8.78,28.76,28.76,0,0,1-.08,10.77c-1.15,6.78-4.61,11-9.56,15.24-8.91,7.66-14.37,12-14.9,24.73"/><path class="cls-1" d="M73.1,91.16c13.09-5.62,26.61-11.58,27.1-24.7a28.08,28.08,0,0,0-.83-8.11C96.78,78.85,74.92,76.08,73.1,91.16"/><path class="cls-1" d="M96.83,47.24c-.18-2.77-.47-5.53-.89-8.26A39,39,0,0,0,84,32.63a10.24,10.24,0,0,1-.87.94C87.92,37.78,93,42,96.83,47.24"/><path class="cls-1" d="M68.26,0c-2.6.18-5.45.58-8.11,1A28.86,28.86,0,0,0,57.6,9.73l.74-.2c1.74-.45,3.26-.73,4.2-.88A23.06,23.06,0,0,1,68.26,0"/><path class="cls-1" d="M87.4,23a42.44,42.44,0,0,1,4.25.23,53.49,53.49,0,0,0-3.47-6.93c-.69.11-1.39.24-2.09.39,1,1.39,1.45,3.73,1.31,6.31"/><path class="cls-1" d="M85.44,30.4a40.93,40.93,0,0,1,9.85,4.93,68.44,68.44,0,0,0-2.59-9.38,39.85,39.85,0,0,0-5.61-.37,18,18,0,0,1-1.64,4.82"/><path class="cls-1" d="M57.09,1.57c-2.48.47-4.54.92-5.69,1.18v9.39a25.23,25.23,0,0,1,3.54-1.56,31.44,31.44,0,0,1,2.16-9"/><path class="cls-1" d="M74.86,25.44A63.39,63.39,0,0,0,81.32,32c.2-.29.39-.59.56-.89a13.24,13.24,0,0,0,.67-11.71l-2.39,1a11.36,11.36,0,0,1,.76,3.15,19.17,19.17,0,0,0-6.06,2"/><path class="cls-1" d="M57.42,53.92a52.45,52.45,0,0,1,13.14-2.55,5.43,5.43,0,0,0-1.41-3.12C68.06,47.15,53.29,50,50.62,53.08v3.76c0,3.14,7.33,8,9,8,2.41,0,6.73-3.52,9.59-7.68a40.88,40.88,0,0,0-8.31,1.94.63.63,0,1,1-.45-1.18A44.7,44.7,0,0,1,70,55.77a8.78,8.78,0,0,0,.61-3.12c-.75.07-1.59.15-2.5.25a45.88,45.88,0,0,0-10.26,2.2.63.63,0,1,1-.45-1.18m-18.08,5.2A40.75,40.75,0,0,0,31,57.17c2.86,4.16,7.18,7.66,9.59,7.68,1.66,0,9-4.87,9-8V53.08C46.93,50,32.16,47.15,31.07,48.25a5.45,5.45,0,0,0-1.41,3.14c.77.06,1.64.15,2.57.26A47.06,47.06,0,0,1,42.8,53.92a.63.63,0,1,1-.45,1.18c-3.88-1.48-9.33-2.15-12.76-2.45a8.82,8.82,0,0,0,.62,3.14,44.39,44.39,0,0,1,9.58,2.15.63.63,0,1,1-.45,1.18M50.11,91c-1.24-7.55-3.24-12.24-5.43-15.72C43,72.62,41,70.51,39.3,68.15a25.38,25.38,0,0,1-2.63-3.78,26.08,26.08,0,0,1-6.91-7.19c1.66,4,4.78,9.23,10.23,16C47.12,82,48.33,92.81,48.73,104a22.5,22.5,0,0,0-4.49-4.17C44.1,84.92,39.12,76.32,33.83,70c-2.61-3.14-5.29-5.74-7.47-8.33-7.85-9.32-4.07-14.72-.57-21a21.79,21.79,0,0,0,2.46,7.48,14.85,14.85,0,0,1,4.93-7.67c1.24-1.12,1.82-2.82,2.91-4a10,10,0,0,1-3.91-.81.53.53,0,1,1,.42-1l.14.06a5.92,5.92,0,0,1-2.06-4.15,2.12,2.12,0,0,0,1.11.49,4.89,4.89,0,0,0,9.63-1.64,20.12,20.12,0,0,0-2.22-1.32,3.36,3.36,0,1,1-5.91,2.68,1.51,1.51,0,0,0,.82-1.28,1.39,1.39,0,0,0-.4-1,3.35,3.35,0,0,1,2.43-1.64,12.17,12.17,0,0,0-2.66-.42,4.91,4.91,0,0,0-1.17,1.44h-.17a2.35,2.35,0,0,0-1.1.27A6,6,0,0,1,32,26.5a10.69,10.69,0,0,0-1.17.19c0,.11-2.55,4.49-2.57,4.48L25,36.52c-.88,1.81-2,3.53-3,5.34-7.72,14,1.9,20.2,9.8,29.73,4.77,5.75,9.29,13.37,9.78,26.52-1.44-.87-3-1.7-4.61-2.5C36.58,69.12,15.5,71.73,12.49,54c-.87-5.16-1.06-10.65,1.47-14.23,3.67-3.3,7.53-6.44,10.86-9.86l.69-.72q1.1-1.18,2.11-2.41a25.87,25.87,0,0,0,5.93-13.16,52.11,52.11,0,0,0-13.09-7.7A46.88,46.88,0,0,1,28.17.12a20.05,20.05,0,0,1,8.26,16.07,34.16,34.16,0,0,1,9.46,16.87c.56.21.65.83-.25,1.31a8.43,8.43,0,0,0-.76.53c-4.43,3.4-5.76,10.49-6,12.92l1.31.3A6.49,6.49,0,0,1,41,45.61a.83.83,0,0,1,.34-1.33l.06,0c1.77-.63,6.64-.66,8.74-.62s7,0,8.74.62l.07,0a.83.83,0,0,1,.34,1.33A6.46,6.46,0,0,1,60,48.12l1.31-.3c-.24-2.43-1.56-9.52-6-12.92a8.32,8.32,0,0,0-.76-.53c-.9-.49-.81-1.11-.25-1.31a34.14,34.14,0,0,1,9.46-16.87A20.05,20.05,0,0,1,72.05.12a46.9,46.9,0,0,1,7.72,5.77,52.15,52.15,0,0,0-13.09,7.7,25.87,25.87,0,0,0,5.93,13.16c.67.82,1.37,1.62,2.11,2.41l.69.72c3.33,3.42,7.19,6.56,10.86,9.86,2.53,3.59,2.34,9.07,1.47,14.23-3,17.76-24.09,15.15-24.53,41.64-1.62.8-3.17,1.63-4.61,2.5.49-13.15,5-20.77,9.78-26.52,7.91-9.53,17.52-15.77,9.8-29.73-1-1.81-2.09-3.52-3-5.34L72,31.17s-2.61-4.37-2.57-4.48a10.58,10.58,0,0,0-1.18-.19,6,6,0,0,1,.94,1.66,2.36,2.36,0,0,0-1.1-.27h-.17a5,5,0,0,0-1.17-1.44,12.15,12.15,0,0,0-2.66.42,3.36,3.36,0,0,1,2.44,1.64,1.37,1.37,0,0,0-.41,1,1.51,1.51,0,0,0,.81,1.28A3.36,3.36,0,1,1,61,28.08a20.19,20.19,0,0,0-2.22,1.32A4.89,4.89,0,0,0,68.41,31a2.15,2.15,0,0,0,1.11-.49,5.93,5.93,0,0,1-2.06,4.15l.14-.06a.53.53,0,0,1,.42,1,10,10,0,0,1-3.91.81c1.09,1.2,1.67,2.9,2.91,4A14.82,14.82,0,0,1,72,48.11a21.83,21.83,0,0,0,2.46-7.48c3.5,6.26,7.29,11.67-.57,21C71.68,64.21,69,66.81,66.39,70,61.1,76.32,56.12,84.92,56,99.83A22.41,22.41,0,0,0,51.5,104c.4-11.19,1.6-22,8.74-30.84,5.44-6.75,8.56-12,10.22-16a26.1,26.1,0,0,1-6.9,7.19,25.37,25.37,0,0,1-2.64,3.78c-1.7,2.35-3.72,4.47-5.38,7.11-2.19,3.48-4.19,8.17-5.43,15.72M59.72,34.7a5.92,5.92,0,0,1-2.06-4.48A15.48,15.48,0,0,0,56,31.67c-.13.45-.26.92-.38,1.38l.11,0a24.83,24.83,0,0,0,4,1.6m-19.22,0a24.81,24.81,0,0,0,4-1.6l.11,0c-.12-.47-.25-.93-.38-1.38a15.39,15.39,0,0,0-1.66-1.46A5.92,5.92,0,0,1,40.5,34.7m1.62,10.4a25.79,25.79,0,0,1,8,6.36,25.81,25.81,0,0,1,8-6.36,53.09,53.09,0,0,0-8-.43,53.1,53.1,0,0,0-8,.43m15.71-9.2c3.23,3.85,4.28,9.5,4.51,11.76,3.63-.69,6.8-.86,7.53-.12a5.83,5.83,0,0,1,1.25,1.93c-.64-6.09-7-10.84-13.29-13.57m-15.45,0c-6.26,2.73-12.65,7.48-13.29,13.57a5.82,5.82,0,0,1,1.24-1.93c.74-.75,3.9-.58,7.54.12.24-2.26,1.28-7.91,4.51-11.76M40.06,65.84c-1-.3-2-.91-2.05-.85a23,23,0,0,1,2.1,1.39c1.73,2.09,5.9,5.94,10,5.56,4.11.38,8.28-3.47,10-5.56A22.31,22.31,0,0,1,62.22,65c-.05-.06-1.09.55-2.06.85a3.58,3.58,0,0,1-.54,0,9.71,9.71,0,0,1-3.89-1.72c-.08,0-2.48-1.72-3.92-1.94a14.23,14.23,0,0,0-1.69-.17,13.85,13.85,0,0,0-1.69.17c-1.45.21-3.84,1.94-3.93,1.94a9.72,9.72,0,0,1-3.89,1.72,3.61,3.61,0,0,1-.54,0"/></g></g></svg>