<svg xmlns="http://www.w3.org/2000/svg" viewBox="0 0 572.97 35.81"><defs><style>.cls-1{fill:#fff;}</style></defs><title>UC_1</title><g id="Ebene_2" data-name="Ebene 2"><g id="Ebene_1-2" data-name="Ebene 1"><path class="cls-1" d="M0,21.36V.91H1.3V21.27c0,8.88,3.89,13.3,11.47,13.3s11.52-4.42,11.52-13.3V.91h1.25V21.36c0,9.6-4.32,14.45-12.77,14.45S0,31.06,0,21.36Z"/><path class="cls-1" d="M37,.91h1.54L56.79,24.39c2,2.59,4,5.18,6,7.78H63V.91h1.25V35.57H64L44.45,10.51c-2-2.54-4-5.14-6-7.73h-.14V34.9H37Z"/><path class="cls-1" d="M76.13.91H84c12.58,0,19.15,5.86,19.15,16.66C103.1,28.75,96,34.9,84,34.9H76.13Zm7.2,32.74c11.86,0,18.43-5.28,18.43-16.08,0-10.37-6.29-15.41-18.34-15.41h-6V33.65Z"/><path class="cls-1" d="M130.27.91l.19,1.25H113.33V16.85h16V18.1h-16V33.65h17.14l-.19,1.25H112.08V.91Z"/><path class="cls-1" d="M161.86,34.61l-.14.29h-1.3l-10.66-15h-8.35v15h-1.25V.91h7.92c7.54,0,11.33,3.36,11.33,9.5,0,4.8-2.88,8.4-8.26,9.31ZM148.61,18.72c6.53,0,9.46-3.46,9.46-8.3,0-5.42-3.36-8.26-10.27-8.26h-6.38V18.72Z"/><path class="cls-1" d="M181,17.91C181,7.68,188.45,0,198.33,0c6.86,0,11.86,3,15.36,9.26l-.91.67-.29-.1c-3.07-5.52-7.63-8.59-14.16-8.59-9.07,0-16,7.2-16,16.66s7.06,16.66,16.08,16.66a15.66,15.66,0,0,0,14.35-8.5l.29-.1.86.62c-3.65,6.19-8.74,9.22-15.46,9.22C188.45,35.81,181,28.18,181,17.91Z"/><path class="cls-1" d="M220,17.91C220,7.87,227,0,237.79,0S255.6,7.87,255.6,17.91s-7.1,17.91-17.81,17.91S220,28,220,17.91Zm34.27,0c0-9.36-6.67-16.66-16.47-16.66s-16.47,7.3-16.47,16.66S228,34.56,237.79,34.56,254.26,27.17,254.26,17.91Z"/><path class="cls-1" d="M264.67.91h1.54l18.24,23.47c2,2.59,4,5.18,6,7.78h.14V.91h1.25V35.57h-.24L272.11,10.51c-2-2.54-4-5.14-6-7.73h-.14V34.9h-1.25Z"/><path class="cls-1" d="M300.76,28.37l1-.67.29,0c2.4,4.85,5.52,6.82,9.94,6.82,4.94,0,8.45-3.41,8.45-7.44s-2.06-6.43-9.74-10c-6.48-3-8.64-5.28-8.64-9.55,0-4.46,3.74-7.58,9.12-7.58a9.88,9.88,0,0,1,9.36,5.62l-1,.62-.29,0a8.48,8.48,0,0,0-8.16-5c-4.56,0-7.73,2.78-7.73,6.29,0,3.89,1.82,5.52,9,8.93s9.41,6,9.41,10.66c0,5-4.22,8.69-9.75,8.69C307.15,35.76,303.45,33.75,300.76,28.37Z"/><path class="cls-1" d="M325.58,2.16V.91h26.21V2.16H339.31V34.9H338V2.16Z"/><path class="cls-1" d="M380.25,34.61l-.14.29h-1.3l-10.66-15H359.8v15h-1.25V.91h7.92c7.54,0,11.33,3.36,11.33,9.5,0,4.8-2.88,8.4-8.26,9.31ZM367,18.72c6.53,0,9.46-3.46,9.46-8.3,0-5.42-3.36-8.26-10.27-8.26H359.8V18.72Z"/><path class="cls-1" d="M386.88,21.36V.91h1.3V21.27c0,8.88,3.89,13.3,11.47,13.3s11.52-4.42,11.52-13.3V.91h1.25V21.36c0,9.6-4.32,14.45-12.77,14.45S386.88,31.06,386.88,21.36Z"/><path class="cls-1" d="M421,17.91C421,7.68,428.49,0,438.38,0c6.86,0,11.86,3,15.36,9.26l-.91.67-.29-.1c-3.07-5.52-7.63-8.59-14.16-8.59-9.07,0-16,7.2-16,16.66s7.06,16.66,16.08,16.66a15.66,15.66,0,0,0,14.35-8.5l.29-.1.86.62c-3.65,6.19-8.74,9.22-15.46,9.22C428.49,35.81,421,28.18,421,17.91Z"/><path class="cls-1" d="M457.77,2.16V.91H484V2.16H471.5V34.9h-1.3V2.16Z"/><path class="cls-1" d="M492,.91v34h-1.25V.91Z"/><path class="cls-1" d="M501.06,17.91c0-10,7-17.91,17.81-17.91s17.81,7.87,17.81,17.91-7.1,17.91-17.81,17.91S501.06,28,501.06,17.91Zm34.28,0c0-9.36-6.67-16.66-16.47-16.66s-16.46,7.3-16.46,16.66,6.72,16.66,16.46,16.66S535.34,27.17,535.34,17.91Z"/><path class="cls-1" d="M545.75.91h1.54l18.24,23.47c2,2.59,4,5.18,6,7.78h.14V.91H573V35.57h-.24L553.19,10.51c-2-2.54-4-5.14-6-7.73H547V34.9h-1.25Z"/></g></g></svg>